/* XPM */
static char * flat1_xpm[] = {
"16 16 26 1",
" 	c None",
".	c #FFFFFF",
"+	c #B5B6B5",
"@	c #323132",
"#	c #F2EFF2",
"$	c #7B7D7B",
"%	c #000000",
"&	c #D5D6D5",
"*	c #B7B8B7",
"=	c #B9BAB9",
"-	c #CFCDCF",
";	c #010101",
">	c #9E9E9E",
",	c #AAABAA",
"'	c #CECDCE",
")	c #555755",
"!	c #202320",
"~	c #959695",
"{	c #1D1D1D",
"]	c #C9CAC9",
"^	c #4D4D4D",
"/	c #ADADAD",
"(	c #999A99",
"_	c #9F9D9F",
":	c #070B07",
"<	c #D5D2D5",
"     ...        ",
"    .+@#.       ",
"    .$%&.       ",
"    .$%&.       ",
"    .$%&.       ",
"    .$%&.       ",
"    .$%&.       ",
"    .$%&..      ",
"    .$%*=-.     ",
"    .$%;;;>.    ",
"    .$%,')!.    ",
"    .$%&.~{.    ",
"    .$%];^/.    ",
"    .$%;(..     ",
"    ._:<.       ",
"     ...        "};
