/* XPM */
static char * lock_xpm[] = {
"16 16 58 1",
" 	c None",
".	c #010101",
"+	c #A6BECE",
"@	c #B3CAD7",
"#	c #BCD1DE",
"$	c #C0D4E0",
"%	c #BBD1DD",
"&	c #ADC4D3",
"*	c #91AABD",
"=	c #8CA6BA",
"-	c #839DB1",
";	c #6F8A9F",
">	c #516E84",
",	c #BBD0DD",
"'	c #D8E8EE",
")	c #E2EFF3",
"!	c #D0E1E8",
"~	c #819BAE",
"{	c #7B96AA",
"]	c #718CA1",
"^	c #5F7B91",
"/	c #4F6C82",
"(	c #BED3DF",
"_	c #E0EEF2",
":	c #D1E1E9",
"<	c #AEC3D1",
"[	c #86A0B3",
"}	c #6D899E",
"|	c #69869B",
"1	c #648096",
"2	c #59768C",
"3	c #B9CFDC",
"4	c #CCDEE6",
"5	c #88A2B5",
"6	c #617E94",
"7	c #5F7C92",
"8	c #5D7A90",
"9	c #57748A",
"0	c #ABC3D2",
"a	c #A4BCCC",
"b	c #87A1B4",
"c	c #5B788E",
"d	c #90A9BD",
"e	c #7F9AAD",
"f	c #607D93",
"g	c #8DA6BA",
"h	c #7C96AA",
"i	c #6A869C",
"j	c #5C798F",
"k	c #6E8A9F",
"l	c #627F95",
"m	c #5A778D",
"n	c #6D899D",
"o	c #5B778D",
"p	c #557288",
"q	c #4C697F",
"r	c #4E6B81",
"s	c #426075",
"     ......     ",
"    .++++++.    ",
"   .+......+.   ",
"   .+.    .+.   ",
"  ............  ",
"  .@#$%&*=-;>.  ",
"  .,')!+~{]^/.  ",
"  .(_:<[}|12/.  ",
"  .34<5}6789/.  ",
"  .0ab}...c9/.  ",
"  .de}f...c9/.  ",
"  .ghi7..jc9/.  ",
"  .-klj..cm9/.  ",
"  .no999999pq.  ",
"  ./rrrrrrrqs.  ",
"  ............  "};
