/* XPM */
static char * play_xpm[] = {
"16 16 35 1",
" 	c None",
".	c #000000",
"+	c #010101",
"@	c #78FC69",
"#	c #7EFA6D",
"$	c #202020",
"%	c #171717",
"&	c #040404",
"*	c #90FF7F",
"=	c #90FE7F",
"-	c #7DF56F",
";	c #6EE761",
">	c #090909",
",	c #050505",
"'	c #080808",
")	c #88FA7A",
"!	c #FEFFFE",
"~	c #D2FFBE",
"{	c #5EC653",
"]	c #8DFB78",
"^	c #D6FFB9",
"/	c #5DC852",
"(	c #51AA47",
"_	c #5BC050",
":	c #51AE47",
"<	c #45903C",
"[	c #448E3B",
"}	c #0D0D0D",
"|	c #5DC352",
"1	c #49953F",
"2	c #397631",
"3	c #3F8436",
"4	c #5CC352",
"5	c #3A7A32",
"6	c #3D7F36",
"..              ",
"...+            ",
".@#+$%          ",
"&*=-;>,+        ",
"')!~{{{...      ",
".]^/((_{{...    ",
".{((((((_{{++.  ",
"+{((((((((:{_...",
".{(((((((<[[[.+}",
".{((((([[[[+..  ",
".{((([[[[+..    ",
".|(123[...      ",
".4522...        ",
".46..+          ",
"....            ",
"..              "};
