/* XPM */
static char * play_pat_xpm[] = {
"16 16 39 1",
" 	c None",
".	c #171717",
"+	c #191919",
"@	c #181818",
"#	c #FFFF9B",
"$	c #FFFFFB",
"%	c #FFFFE0",
"&	c #FFFF86",
"*	c #EEEE7D",
"=	c #EBEB6D",
"-	c #FFFF73",
";	c #FFFFFF",
">	c #E9E967",
",	c #E2E263",
"'	c #CFCF5B",
")	c #DEDE61",
"!	c #D3D35D",
"~	c #BCBC53",
"{	c #DADA60",
"]	c #FAFA71",
"^	c #D2D25D",
"/	c #151515",
"(	c #F1F16C",
"_	c #D6D65E",
":	c #EAEA67",
"<	c #E5E565",
"[	c #BFBF54",
"}	c #F3F36C",
"|	c #CCCC5A",
"1	c #F4F46D",
"2	c #E7E766",
"3	c #CECE5B",
"4	c #E3E363",
"5	c #DEDE63",
"6	c #D5D55E",
"7	c #FBFB71",
"8	c #DBDB61",
"9	c #D6D65F",
"0	c #161616",
"...++++++++++@..",
"..#$%&&&&**&&=+.",
" .-;;>>,')),!~. ",
" .+-,{{]^,-,~/. ",
"  .-())]_:<,~/  ",
"  ..-,,,!:<[~/  ",
"   .}|,12,,~/   ",
"   ..~324,~~.   ",
"    .~~125~/    ",
"    ./~67~/.    ",
"     .~88~.     ",
"     ./9{/.     ",
"      0~~.      ",
"      .~~.      ",
"       ..       ",
"       ..       "};
