/* XPM */
static char * rightarrow_xpm[] = {
"16 16 3 1",
" 	c None",
".	c #000000",
"+	c #A092A0",
"                ",
"         .      ",
"         ..     ",
"         .+.    ",
"         .++.   ",
"..........+++.  ",
".+++++++++++++. ",
".++++++++++++++.",
".++++++++++++++.",
".+++++++++++++. ",
"..........+++.  ",
"         .++.   ",
"         .+.    ",
"         ..     ",
"         .      ",
"                "};
