/* XPM */
static char * sharp1_xpm[] = {
"16 16 64 1",
" 	c None",
".	c #FFFFFF",
"+	c #646564",
"@	c #656565",
"#	c #545554",
"$	c #ADACAD",
"%	c #F0F0F0",
"&	c #595B59",
"*	c #616161",
"=	c #383938",
"-	c #9B9C9B",
";	c #EFEFEF",
">	c #424342",
",	c #818181",
"'	c #959695",
")	c #212121",
"!	c #0C0D0C",
"~	c #909090",
"{	c #B3B4B3",
"]	c #252625",
"^	c #0E0E0E",
"/	c #020202",
"(	c #000000",
"_	c #242424",
":	c #ACACAC",
"<	c #747574",
"[	c #080808",
"}	c #030503",
"|	c #424142",
"1	c #2B2A2B",
"2	c #595959",
"3	c #717271",
"4	c #161716",
"5	c #7D7E7D",
"6	c #D5D5D5",
"7	c #565756",
"8	c #525152",
"9	c #BCBDBC",
"0	c #454645",
"a	c #979797",
"b	c #CFD0CF",
"c	c #484948",
"d	c #111111",
"e	c #949594",
"f	c #C2C3C2",
"g	c #303230",
"h	c #414141",
"i	c #989998",
"j	c #141414",
"k	c #010301",
"l	c #0A0C0A",
"m	c #3A3A3A",
"n	c #676767",
"o	c #070707",
"p	c #434243",
"q	c #A8A6A8",
"r	c #4B4D4B",
"s	c #A9AAA9",
"t	c #232423",
"u	c #F2F2F2",
"v	c #757675",
"w	c #777777",
"x	c #3F3F3F",
"y	c #A2A1A2",
"        ..      ",
"     ...+@.     ",
"    .#$%&*.     ",
"    .=-;&>.     ",
"    .=,')!~.    ",
"   .{]^/(_:.    ",
"   .<[}|12.     ",
"   .345678.     ",
"    90abcde.    ",
"    fghg([i.    ",
"   .,j(klm.     ",
"   .nopqr*.     ",
"   .st-;&*.     ",
"    .=-uvw.     ",
"    .xy...      ",
"     ..         "};
