/* XPM */
static char * stop_xpm[] = {
"16 16 53 1",
" 	c None",
".	c #000000",
"+	c #FFA9A9",
"@	c #FFB7B7",
"#	c #FF8484",
"$	c #FFC2C2",
"%	c #FFFCFC",
"&	c #FFA3A3",
"*	c #FF8888",
"=	c #FF8383",
"-	c #FF7171",
";	c #D55E5E",
">	c #FF8585",
",	c #FFCFCF",
"'	c #FFF5F5",
")	c #FE8888",
"!	c #F96161",
"~	c #AD4444",
"{	c #FF9797",
"]	c #FFCBCB",
"^	c #FA6363",
"/	c #FA6565",
"(	c #EF5D5D",
"_	c #FF9999",
":	c #FF7878",
"<	c #FB6868",
"[	c #FC6969",
"}	c #FF9A9A",
"|	c #E55959",
"1	c #FD6B6B",
"2	c #FE6E6E",
"3	c #FA6464",
"4	c #F55F5F",
"5	c #E95B5B",
"6	c #FFB2B2",
"7	c #FF9191",
"8	c #FC6868",
"9	c #FFB4B4",
"0	c #F06161",
"a	c #FB6666",
"b	c #FB6D6D",
"c	c #FE7070",
"d	c #FF8787",
"e	c #B84848",
"f	c #FF9393",
"g	c #DF6262",
"h	c #D05151",
"i	c #F76565",
"j	c #AA4343",
"k	c #EB7979",
"l	c #BA5151",
"m	c #B24E4E",
"n	c #A44040",
"................",
".+@############.",
".$%&*#####=---;.",
".>,')!!!!!!!!!~.",
".{]$^!!!!//((!~.",
"._:<!![[!//((!~.",
".}-!!|!!^1![[!~.",
".}-23|!!^-!!!!~.",
".}-!!45!!!!!!!~.",
".67!!45!!!8!!!~.",
".97!/0(!!a-!|!~.",
".}#b/0(!32!!|!~.",
".}-c!!!!!!!!!de.",
".fg;hhhhhhhhhij.",
".klm~~~~~~~~~~n.",
"................"};
